<?xml version="1.0" encoding="UTF-8" standalone="no"?>
<!-- Created with Inkscape (http://www.inkscape.org/) -->

<svg
   xmlns:dc="http://purl.org/dc/elements/1.1/"
   xmlns:cc="http://creativecommons.org/ns#"
   xmlns:rdf="http://www.w3.org/1999/02/22-rdf-syntax-ns#"
   xmlns:svg="http://www.w3.org/2000/svg"
   xmlns="http://www.w3.org/2000/svg"
   xmlns:sodipodi="http://sodipodi.sourceforge.net/DTD/sodipodi-0.dtd"
   xmlns:inkscape="http://www.inkscape.org/namespaces/inkscape"
   width="1000"
   height="1000"
   viewBox="0 0 264.58333 264.58334"
   version="1.1"
   id="svg8"
   inkscape:version="0.92.2 5c3e80d, 2017-08-06"
   sodipodi:docname="ScribblesWhite.svg">
  <defs
     id="defs2" />
  <sodipodi:namedview
     id="base"
     pagecolor="#a7a7a7"
     bordercolor="#666666"
     borderopacity="1.0"
     inkscape:pageopacity="0"
     inkscape:pageshadow="2"
     inkscape:zoom="0.7"
     inkscape:cx="639.79572"
     inkscape:cy="582.96763"
     inkscape:document-units="mm"
     inkscape:current-layer="layer1"
     showgrid="false"
     units="px"
     inkscape:window-width="1920"
     inkscape:window-height="1085"
     inkscape:window-x="0"
     inkscape:window-y="1"
     inkscape:window-maximized="1" />
  <metadata
     id="metadata5">
    <rdf:RDF>
      <cc:Work
         rdf:about="">
        <dc:format>image/svg+xml</dc:format>
        <dc:type
           rdf:resource="http://purl.org/dc/dcmitype/StillImage" />
        <dc:title />
      </cc:Work>
    </rdf:RDF>
  </metadata>
  <g
     inkscape:label="Layer 1"
     inkscape:groupmode="layer"
     id="layer1"
     transform="translate(0,-32.416658)">
    <path
       style="fill:#ffffff;stroke-width:0.36728293"
       d="m 46.350728,250.57484 c -0.09471,-0.15326 -0.01278,-1.02097 0.182094,-1.92824 0.194868,-0.90727 0.675801,-3.26105 1.068742,-5.23061 0.392939,-1.96955 1.05652,-5.2751 1.474623,-7.34565 0.418103,-2.07056 1.037893,-5.25214 1.377311,-7.0702 0.339418,-1.81805 0.721183,-3.47082 0.848367,-3.67282 0.127184,-0.20201 0.436011,-1.85479 0.686282,-3.67284 0.250271,-1.81804 0.581132,-3.47082 0.735247,-3.67282 0.154116,-0.20201 0.48467,-1.85479 0.734566,-3.67284 0.249897,-1.81804 0.582172,-3.47082 0.73839,-3.67283 0.156218,-0.202 0.491362,-1.90128 0.744765,-3.77618 0.253404,-1.8749 0.60183,-3.4961 0.77428,-3.60268 0.17245,-0.10658 0.313546,-0.60808 0.313546,-1.11446 0,-0.50637 0.178733,-1.25465 0.397186,-1.66282 0.218451,-0.40819 27.659129,-28.00445 60.979293,-61.32505 l 60.58209,-60.582885 2.83612,0.352522 c 3.23662,0.402288 7.09581,1.301573 8.71265,2.030261 1.28814,0.580538 5.70643,2.741865 7.10955,3.477841 0.53386,0.280029 1.6596,1.065093 2.50162,1.744589 0.84202,0.679505 1.67369,1.235451 1.84817,1.235451 0.59031,0 8.55758,8.03658 8.55758,8.632025 0,0.112409 0.63416,1.006646 1.40925,1.98721 1.42461,1.802256 3.71043,6.210836 5.17832,9.987196 0.69181,1.7798 1.27831,4.40618 2.11362,9.46483 0.20291,1.22884 -0.32206,1.76627 -60.86782,62.31286 -49.26134,49.262 -61.292131,61.11118 -62.208168,61.26914 -6.219518,1.07246 -10.044277,1.79345 -10.501394,1.9796 -0.526787,0.21452 -3.643161,0.82314 -10.834846,2.116 -1.818051,0.32683 -3.636101,0.73734 -4.040112,0.91222 -0.404011,0.17489 -2.139424,0.51739 -3.856471,0.76111 -1.717047,0.24373 -3.287181,0.56694 -3.489187,0.71826 -0.202006,0.1513 -1.854779,0.47956 -3.67283,0.72947 -1.81805,0.2499 -3.470823,0.58217 -3.672829,0.73839 -0.202006,0.15622 -1.901288,0.49136 -3.776184,0.74476 -1.874897,0.25341 -3.496105,0.60183 -3.602684,0.77428 -0.240149,0.38857 -1.148376,0.41152 -1.381137,0.0349 z m 65.947152,-69.59825 c 34.66129,-35.24459 52.03648,-52.90745 70.06311,-71.22313 8.06358,-8.19288 10.31632,-10.683527 10.14663,-11.218172 -0.36969,-1.164791 -3.21838,-3.649363 -5.72597,-4.994049 -4.01591,-2.15353 -3.60091,-2.251103 -7.77786,1.82869 -2.03392,1.986637 -4.52628,4.603724 -5.53855,5.815761 -1.01228,1.21203 -25.07271,25.56494 -53.46761,54.11757 l -51.627112,51.91387 0.899407,0.7109 c 0.494675,0.391 1.725794,1.27826 2.735823,1.97171 1.010027,0.69344 2.828078,2.16817 4.040111,3.27718 1.212034,1.10901 2.286337,2.02338 2.387339,2.03194 0.100999,0.008 15.340112,-15.39595 33.864682,-34.23227 z"
       id="path880"
       inkscape:connector-curvature="0" />
  </g>
</svg>
