<?xml version="1.0" encoding="UTF-8" standalone="no"?>
<!-- Created with Inkscape (http://www.inkscape.org/) -->

<svg
   xmlns:dc="http://purl.org/dc/elements/1.1/"
   xmlns:cc="http://creativecommons.org/ns#"
   xmlns:rdf="http://www.w3.org/1999/02/22-rdf-syntax-ns#"
   xmlns:svg="http://www.w3.org/2000/svg"
   xmlns="http://www.w3.org/2000/svg"
   xmlns:sodipodi="http://sodipodi.sourceforge.net/DTD/sodipodi-0.dtd"
   xmlns:inkscape="http://www.inkscape.org/namespaces/inkscape"
   width="300"
   height="300"
   viewBox="0 0 79.374998 79.375002"
   version="1.1"
   id="svg8"
   inkscape:version="0.92.2 5c3e80d, 2017-08-06"
   sodipodi:docname="close.svg">
  <defs
     id="defs2" />
  <sodipodi:namedview
     id="base"
     pagecolor="#ffffff"
     bordercolor="#666666"
     borderopacity="1.0"
     inkscape:pageopacity="0.0"
     inkscape:pageshadow="2"
     inkscape:zoom="1.979899"
     inkscape:cx="200.10654"
     inkscape:cy="132.05329"
     inkscape:document-units="mm"
     inkscape:current-layer="layer1"
     showgrid="false"
     units="px"
     inkscape:window-width="1920"
     inkscape:window-height="1085"
     inkscape:window-x="0"
     inkscape:window-y="1"
     inkscape:window-maximized="1" />
  <metadata
     id="metadata5">
    <rdf:RDF>
      <cc:Work
         rdf:about="">
        <dc:format>image/svg+xml</dc:format>
        <dc:type
           rdf:resource="http://purl.org/dc/dcmitype/StillImage" />
        <dc:title></dc:title>
      </cc:Work>
    </rdf:RDF>
  </metadata>
  <g
     inkscape:label="Layer 1"
     inkscape:groupmode="layer"
     id="layer1"
     transform="translate(0,-217.62498)">
    <path
       sodipodi:type="inkscape:offset"
       inkscape:radius="0"
       inkscape:original="M 9.0371094 261.75 C 7.9910232 261.75 7.0957031 262.54766 7.0957031 263.59375 C 7.0957031 264.09189 7.2440691 264.48916 7.6425781 265.03711 L 31.751953 298.3125 L 31.751953 298.41211 L 7.4433594 331.98633 C 7.094664 332.48446 6.9453125 332.88272 6.9453125 333.38086 C 6.9453125 334.32732 7.7419908 335.125 8.8378906 335.125 C 9.585095 335.125 10.033096 334.82535 10.630859 333.97852 L 34.09375 301.70117 L 34.193359 301.70117 L 57.556641 334.08008 C 58.104591 334.82728 58.602405 335.125 59.349609 335.125 C 60.395696 335.125 61.292969 334.3283 61.292969 333.33203 C 61.292969 332.83389 61.092836 332.33504 60.744141 331.88672 L 36.583984 298.51172 L 36.583984 298.41211 L 60.994141 264.88867 C 61.342836 264.39054 61.492188 263.99131 61.492188 263.44336 C 61.492188 262.54671 60.693556 261.75 59.597656 261.75 C 58.850452 261.75 58.40245 262.0477 57.804688 262.89453 L 34.34375 295.27344 L 34.244141 295.27344 L 10.880859 262.89453 C 10.283096 262.0477 9.8341274 261.75 9.0371094 261.75 z "
       style="font-style:normal;font-weight:normal;font-size:21.2538147px;line-height:1.25;font-family:sans-serif;letter-spacing:0px;word-spacing:0px;fill:#000000;fill-opacity:1;stroke:none;stroke-width:0.53134537"
       id="text817"
       d="m 9.0371094,261.75 c -1.0460862,0 -1.9414063,0.79766 -1.9414063,1.84375 0,0.49814 0.148366,0.89541 0.546875,1.44336 L 31.751953,298.3125 v 0.0996 L 7.4433594,331.98633 c -0.3486954,0.49813 -0.4980469,0.89639 -0.4980469,1.39453 0,0.94646 0.7966783,1.74414 1.8925781,1.74414 0.7472044,0 1.1952054,-0.29965 1.7929684,-1.14648 L 34.09375,301.70117 h 0.09961 l 23.363282,32.37891 c 0.54795,0.7472 1.045764,1.04492 1.792968,1.04492 1.046087,0 1.94336,-0.7967 1.94336,-1.79297 0,-0.49814 -0.200133,-0.99699 -0.548828,-1.44531 l -24.160157,-33.375 v -0.0996 l 24.410157,-33.52344 c 0.348695,-0.49813 0.498047,-0.89736 0.498047,-1.44531 0,-0.89665 -0.798632,-1.69336 -1.894532,-1.69336 -0.747204,0 -1.195206,0.2977 -1.792968,1.14453 L 34.34375,295.27344 h -0.09961 L 10.880859,262.89453 C 10.283096,262.0477 9.8341274,261.75 9.0371094,261.75 Z"
       transform="scale(1.1598251,0.86219896)" />
  </g>
</svg>
