<?xml version="1.0" encoding="UTF-8" standalone="no"?>
<!-- Created with Inkscape (http://www.inkscape.org/) -->

<svg
   xmlns:dc="http://purl.org/dc/elements/1.1/"
   xmlns:cc="http://creativecommons.org/ns#"
   xmlns:rdf="http://www.w3.org/1999/02/22-rdf-syntax-ns#"
   xmlns:svg="http://www.w3.org/2000/svg"
   xmlns="http://www.w3.org/2000/svg"
   xmlns:sodipodi="http://sodipodi.sourceforge.net/DTD/sodipodi-0.dtd"
   xmlns:inkscape="http://www.inkscape.org/namespaces/inkscape"
   width="500"
   height="500"
   viewBox="0 0 132.29166 132.29167"
   version="1.1"
   id="svg8"
   inkscape:version="0.92.2 5c3e80d, 2017-08-06"
   sodipodi:docname="gallery.svg">
  <defs
     id="defs2" />
  <sodipodi:namedview
     id="base"
     pagecolor="#bababa"
     bordercolor="#666666"
     borderopacity="1.0"
     inkscape:pageopacity="0"
     inkscape:pageshadow="2"
     inkscape:zoom="1.4"
     inkscape:cx="137.73809"
     inkscape:cy="225.52917"
     inkscape:document-units="mm"
     inkscape:current-layer="layer1"
     showgrid="false"
     units="px"
     inkscape:window-width="1920"
     inkscape:window-height="1085"
     inkscape:window-x="0"
     inkscape:window-y="1"
     inkscape:window-maximized="1" />
  <metadata
     id="metadata5">
    <rdf:RDF>
      <cc:Work
         rdf:about="">
        <dc:format>image/svg+xml</dc:format>
        <dc:type
           rdf:resource="http://purl.org/dc/dcmitype/StillImage" />
        <dc:title />
      </cc:Work>
    </rdf:RDF>
  </metadata>
  <g
     inkscape:label="Layer 1"
     inkscape:groupmode="layer"
     id="layer1"
     transform="translate(0,-164.70832)">
    <path
       style="fill:#ffffff;stroke-width:0.05482494"
       d="m 32.980285,267.67673 c -2.47735,-0.29484 -4.137842,-0.92423 -5.89368,-2.23392 -0.602816,-0.44964 -1.68066,-1.47574 -2.141675,-2.03885 -1.334219,-1.62971 -2.147034,-3.52599 -2.405981,-5.61309 -0.03938,-0.31746 -0.05764,-7.05779 -0.05764,-21.2839 0,-18.52594 0.0094,-20.88747 0.0852,-21.43799 0.26351,-1.91341 0.936107,-3.53618 2.113402,-5.09897 0.420019,-0.55756 1.739908,-1.87884 2.297042,-2.29948 1.264458,-0.95466 2.70736,-1.65035 4.139284,-1.99573 1.355401,-0.32692 1.152758,-0.31735 7.418684,-0.35009 l 5.773937,-0.0302 1.194318,-3.09761 c 0.656876,-1.70368 1.294186,-3.29497 1.416245,-3.53621 0.930897,-1.83974 3.019187,-3.56276 5.206072,-4.29543 1.175676,-0.39389 0.0527,-0.36468 14.023874,-0.36468 11.913694,0 12.578709,0.005 13.020923,0.0994 2.562149,0.5463 5.075111,2.39494 6.181703,4.54752 0.120268,0.23395 0.758453,1.83118 1.418184,3.54941 l 1.199513,3.12404 5.400253,6.2e-4 c 3.325816,4.1e-4 5.642457,0.0228 6.030747,0.0582 3.23882,0.29549 6.10306,1.90745 8.18253,4.60504 1.1087,1.43827 1.7711,3.00611 2.10664,4.98625 0.0921,0.54337 0.0986,1.71859 0.11566,20.94313 0.0128,14.44055 6.2e-4,20.62498 -0.0423,21.25242 -0.19018,2.78549 -1.26429,5.12863 -3.26709,7.12706 -1.6014,1.59791 -3.56586,2.69317 -5.63188,3.13997 -1.37008,0.2963 0.76719,0.27969 -34.824177,0.27079 -18.092412,-0.005 -32.969309,-0.017 -33.059769,-0.0278 z m 35.47173,-11.39753 c 3.928174,-0.40304 7.434383,-1.84087 10.495713,-4.30407 3.670074,-2.95301 6.166057,-6.81087 7.097872,-10.97066 0.369476,-1.6494 0.496806,-3.05427 0.453884,-5.00795 -0.05489,-2.49878 -0.432125,-4.45748 -1.273166,-6.61067 -1.700291,-4.35297 -5.472192,-8.41437 -9.880659,-10.63899 -1.980297,-0.99931 -4.015033,-1.60797 -6.509869,-1.94732 -0.828509,-0.11269 -3.638472,-0.16085 -4.585006,-0.0786 -4.231632,0.36783 -7.80374,1.80405 -11.077308,4.45378 -0.77809,0.62982 -2.621826,2.47226 -3.201909,3.19967 -2.398498,3.00766 -3.694651,6.11117 -4.144053,9.92252 -0.09533,0.80846 -0.09591,3.64532 -8.32e-4,4.44082 0.546779,4.57864 2.368939,8.30149 5.687423,11.61997 3.531269,3.53127 7.777385,5.53545 12.606819,5.95044 1.389033,0.11936 2.98979,0.10865 4.331169,-0.029 z m -3.536208,-7.04534 c -0.727353,-0.0639 -1.91024,-0.27917 -2.5434,-0.46282 -3.286117,-0.95315 -6.143638,-3.24954 -7.871461,-6.32574 -1.199687,-2.13591 -1.699718,-4.91266 -1.367323,-7.59296 0.310305,-2.50219 1.409811,-4.83907 3.179876,-6.75846 2.455089,-2.66221 5.50246,-4.11645 8.986083,-4.28827 4.091222,-0.2018 7.447885,1.07106 10.252263,3.88768 2.550484,2.56162 3.796446,5.73451 3.653713,9.30434 -0.07497,1.87512 -0.446692,3.40112 -1.211805,4.9748 -0.60387,1.24204 -1.392439,2.32649 -2.494233,3.43011 -2.121653,2.12516 -4.613091,3.37353 -7.486104,3.75103 -0.820362,0.10779 -2.337265,0.1471 -3.097609,0.0803 z"
       id="path867"
       inkscape:connector-curvature="0" />
  </g>
</svg>
