<?xml version="1.0" encoding="UTF-8" standalone="no"?>
<!-- Created with Inkscape (http://www.inkscape.org/) -->

<svg
   xmlns:dc="http://purl.org/dc/elements/1.1/"
   xmlns:cc="http://creativecommons.org/ns#"
   xmlns:rdf="http://www.w3.org/1999/02/22-rdf-syntax-ns#"
   xmlns:svg="http://www.w3.org/2000/svg"
   xmlns="http://www.w3.org/2000/svg"
   xmlns:sodipodi="http://sodipodi.sourceforge.net/DTD/sodipodi-0.dtd"
   xmlns:inkscape="http://www.inkscape.org/namespaces/inkscape"
   width="476.25mm"
   height="381mm"
   viewBox="0 0 476.25 381"
   version="1.1"
   id="svg8"
   inkscape:version="0.92.2 5c3e80d, 2017-08-06"
   sodipodi:docname="logo.svg">
  <defs
     id="defs2" />
  <sodipodi:namedview
     id="base"
     pagecolor="#bdbdbd"
     bordercolor="#666666"
     borderopacity="1.0"
     inkscape:pageopacity="0"
     inkscape:pageshadow="2"
     inkscape:zoom="0.49497475"
     inkscape:cx="1059.1848"
     inkscape:cy="724.58029"
     inkscape:document-units="mm"
     inkscape:current-layer="layer1"
     showgrid="false"
     fit-margin-top="0"
     fit-margin-left="0"
     fit-margin-right="0"
     fit-margin-bottom="0"
     inkscape:window-width="1920"
     inkscape:window-height="1085"
     inkscape:window-x="0"
     inkscape:window-y="1"
     inkscape:window-maximized="1" />
  <metadata
     id="metadata5">
    <rdf:RDF>
      <cc:Work
         rdf:about="">
        <dc:format>image/svg+xml</dc:format>
        <dc:type
           rdf:resource="http://purl.org/dc/dcmitype/StillImage" />
        <dc:title></dc:title>
      </cc:Work>
    </rdf:RDF>
  </metadata>
  <g
     inkscape:label="Layer 1"
     inkscape:groupmode="layer"
     id="layer1"
     transform="translate(-20.410715,-37.708332)">
    <path
       style="fill:#fefefe;stroke-width:0.35308367"
       d="m 103.88507,336.9581 v -12.35793 h 2.64814 2.64811 v 9.70981 9.7098 h 9.70981 9.70981 v 2.64812 2.64813 h -12.35793 -12.35794 z m 284.58542,9.7098 v -2.64812 h 9.70981 9.70981 v -9.7098 -9.70981 h 2.64811 2.64814 v 12.35793 12.35793 h -12.35793 -12.35794 z m -141.0569,-38.99664 c -5.64634,-1.3074 -10.24386,-3.19324 -15.62906,-6.41082 -10.30356,-6.15623 -18.91536,-17.08223 -22.14052,-28.09025 -0.50301,-1.71679 -1.10832,-3.75698 -1.34517,-4.53377 -0.66408,-7.67062 -1.0544,-16.09203 0.9037,-22.88219 2.48397,-8.47196 6.57108,-15.38597 12.7856,-21.62889 4.15925,-4.17827 7.19437,-6.46003 12.53762,-9.42562 9.94093,-5.51737 22.94749,-7.14434 35.75405,-4.47237 15.94536,3.32684 31.38134,17.32358 36.41985,33.02413 3.01777,9.88649 3.1552,19.32007 1.13315,27.11858 -2.76606,10.63438 -8.94631,20.23034 -17.51982,27.20272 -12.47261,9.64502 -30.22897,12.63446 -42.8994,10.09848 z m -69.66409,-2.04932 c -1.14131,-3.55559 -1.60876,-9.41642 -1.36984,-17.17489 0.1937,-6.28957 0.51126,-9.19815 1.83522,-16.80942 1.11584,-7.18837 1.13533,-15.72695 -1.52395,-20.94294 -1.38086,-2.6767 -3.52507,-4.57466 -6.98347,-6.18144 -2.46755,-1.14644 -2.7103,-1.85547 -2.52889,-7.38622 0.4412,-13.4507 5.00746,-22.87602 12.8142,-26.45006 2.07932,-0.95194 7.88647,-2.11453 8.80382,-1.76251 0.47408,0.18192 0.53474,5.8142 0.53474,49.648 v 49.44278 h -5.40841 -5.40839 z m 154.69632,1.05924 c -0.97021,-2.31666 -1.52194,-6.69071 -1.67526,-13.28104 -0.19866,-8.53983 0.14228,-12.24857 2.26026,-24.58717 1.32092,-8.70266 -0.9881,-19.83718 -8.17043,-23.83209 -3.27791,-1.68335 -3.48835,-2.16571 -3.31238,-7.59237 0.24623,-7.59419 1.22249,-11.94896 4.0369,-18.00726 1.56428,-3.36727 5.4777,-7.22773 8.86379,-8.74384 1.8774,-0.84062 6.21569,-1.81106 8.2092,-1.83635 l 0.97098,-0.0123 v 49.60825 49.60825 h -5.31428 -5.31427 z M 148.7267,168.89029 v -20.47885 h 12.18138 12.18139 v 4.94316 4.94318 h -7.21032 -7.21032 l -0.11617,2.64895 -0.11616,2.64896 5.73761,-6.9e-4 5.73761,-6.9e-4 v 5.11971 5.11971 h -5.64934 -5.64935 v 7.76783 7.76785 h -4.94316 -4.94317 z m 26.83436,0.003 V 148.4111 h 4.94317 4.94318 v 15.35914 15.35915 h 7.06167 7.06167 l 0.006,4.67835 0.006,4.67836 4.22434,-12.71101 c 2.32338,-6.99106 5.30455,-15.96821 6.62482,-19.94922 l 2.40047,-7.23822 h 4.72183 4.72183 l 0.66758,1.94196 c 0.36717,1.06808 1.38435,4.40472 2.26039,7.41475 0.87604,3.01003 2.2825,7.61779 3.12546,10.23943 0.84297,2.62165 2.34551,7.38828 3.33897,10.59251 0.99347,3.20423 2.11043,6.77339 2.48216,7.93144 0.37171,1.15807 0.5986,2.23056 0.50419,2.38331 -0.0944,0.1526 -2.44245,0.27758 -5.21791,0.27758 h -5.04625 l -0.71003,-2.3833 -0.71001,-2.38333 -5.65335,-0.0969 -5.65334,-0.0969 -0.83919,2.39185 -0.83919,2.39185 -17.21282,0.0916 -17.21284,0.0917 v -20.48222 z m 68.49669,20.39746 c -7e-4,-0.0542 -0.55697,-1.74868 -1.2358,-3.76554 -0.67884,-2.01702 -1.23425,-3.96557 -1.23425,-4.33024 0,-0.36467 -0.15339,-0.93893 -0.34087,-1.27614 -0.18749,-0.33722 -1.20422,-3.4731 -2.25942,-6.96861 -1.05521,-3.49553 -2.65594,-8.65938 -3.55719,-11.47522 -0.90125,-2.81585 -2.0219,-6.54971 -2.49033,-8.29746 -0.46845,-1.74777 -0.95729,-3.53526 -1.0863,-3.97221 L 231.619,148.4109 h 5.15103 5.15103 l 0.53219,1.85369 c 0.90004,3.13495 2.13166,7.22703 4.17109,13.85853 1.07501,3.49553 2.01389,6.67329 2.08641,7.06167 0.0757,0.40486 0.41354,-0.34842 0.792,-1.76541 0.36308,-1.35938 1.57792,-5.25212 2.69963,-8.65056 1.12171,-3.39842 2.45909,-7.56922 2.97197,-9.26844 l 0.93252,-3.08948 h 5.29868 5.29868 l -0.23348,0.79443 c -0.12841,0.43695 -1.98285,6.11717 -4.12098,12.62275 -2.13813,6.50557 -5.03261,15.32383 -6.43218,19.59614 l -2.54465,7.76784 -4.65682,0.0985 c -2.56126,0.0542 -4.65752,0.0542 -4.65837,0 z m 22.77198,-8.55545 c -4.33305,-6.53116 -4.83049,-14.47273 -1.35156,-21.57762 2.05494,-4.19674 7.26375,-8.66287 11.71991,-10.04884 3.09632,-0.96305 8.31552,-0.95781 11.45376,0.0115 6.29006,1.94279 12.2851,8.58541 13.69915,15.1789 0.70724,6.10267 0.30608,10.13995 -2.29209,14.82993 -3.80806,6.34844 -10.37482,9.88219 -16.45424,10.09196 -6.44123,0.28651 -13.38848,-3.58444 -16.77493,-8.48583 z m 48.69829,8.00949 c -5.17226,-1.84596 -9.24121,-6.20133 -10.37156,-11.10159 -0.1981,-0.85877 -0.35326,-7.5194 -0.35815,-15.37376 l -0.009,-13.85854 h 4.93115 4.93117 l 0.10031,13.56832 c 0.0966,13.07124 0.12694,13.604 0.82826,14.54287 1.30508,1.74717 2.53987,2.43055 4.39171,2.43055 1.9765,0 3.30978,-0.81112 4.41356,-2.68503 0.66704,-1.13248 0.71193,-1.93737 0.81032,-14.5278 l 0.10415,-13.32891 h 4.91922 4.91924 l 0.0963,13.73672 c 0.053,7.5552 -0.0228,13.663 -0.16848,13.57289 -0.14565,-0.0901 -0.28467,0.32219 -0.30894,0.91624 -0.0585,1.43052 -0.16078,1.75375 -1.41174,4.45962 -1.20208,2.60016 -4.61041,5.68912 -8.00196,7.25214 -2.34982,1.08293 -7.32878,1.28394 -9.81594,0.39628 z m 23.59617,-19.76677 0.0911,-20.39058 5.99801,-0.0972 c 5.18435,-0.084 6.31572,-6.9e-4 8.33986,0.61412 6.04545,1.83626 10.8916,7.32332 11.48539,13.00436 0.42011,4.01948 -0.76795,7.86734 -3.41042,11.04552 l -1.34392,1.61638 4.01853,6.68108 c 2.21018,3.6746 4.0238,6.95914 4.03023,7.29898 0.0109,0.56302 -0.48598,0.61791 -5.59069,0.61791 h -5.60244 l -3.10107,-5.11972 c -2.57961,-4.25879 -3.2406,-5.11971 -3.93083,-5.11971 h -0.82976 v 5.11971 5.11972 h -5.12258 -5.12259 z M 103.88507,119.45817 v -12.35794 h 12.35794 12.35793 v 2.64814 2.64811 h -9.70981 -9.70981 v 9.70981 9.7098 h -2.64811 -2.64814 z m 304.00504,2.64812 v -9.70981 h -9.70981 -9.70981 v -2.64811 -2.64814 h 12.35794 12.35793 v 12.35794 12.35792 h -2.64814 -2.64811 z"
       id="path3799"
       inkscape:connector-curvature="0"
       sodipodi:nodetypes="cccccccccccccccccccccccccccssccssscccccsccsscssccccccccscccccccccccccccccccccccccccccccccccccccccscccccccccscccccccccccccscscscccccsccssccccssccccccccccccccccccscscsccccccccccccscsscccscsscccccccccccccccccccccccccccccccc" />
    <path
       style="fill:#000000;stroke-width:0.35277778"
       d=""
       id="path100"
       inkscape:connector-curvature="0" />
    <path
       style="fill:#000000;stroke-width:0.35277778"
       d=""
       id="path98"
       inkscape:connector-curvature="0" />
    <path
       style="fill:#000000;stroke-width:0.35277778"
       d=""
       id="path96"
       inkscape:connector-curvature="0" />
  </g>
</svg>
