<?xml version="1.0" encoding="UTF-8" standalone="no"?>
<!-- Created with Inkscape (http://www.inkscape.org/) -->

<svg
   xmlns:dc="http://purl.org/dc/elements/1.1/"
   xmlns:cc="http://creativecommons.org/ns#"
   xmlns:rdf="http://www.w3.org/1999/02/22-rdf-syntax-ns#"
   xmlns:svg="http://www.w3.org/2000/svg"
   xmlns="http://www.w3.org/2000/svg"
   xmlns:sodipodi="http://sodipodi.sourceforge.net/DTD/sodipodi-0.dtd"
   xmlns:inkscape="http://www.inkscape.org/namespaces/inkscape"
   width="500"
   height="500"
   viewBox="0 0 132.29166 132.29167"
   version="1.1"
   id="svg8"
   inkscape:version="0.92.2 5c3e80d, 2017-08-06"
   sodipodi:docname="recipes.svg">
  <defs
     id="defs2" />
  <sodipodi:namedview
     id="base"
     pagecolor="#b8b8b8"
     bordercolor="#666666"
     borderopacity="1.0"
     inkscape:pageopacity="0"
     inkscape:pageshadow="2"
     inkscape:zoom="1.4"
     inkscape:cx="125.64406"
     inkscape:cy="285.48966"
     inkscape:document-units="mm"
     inkscape:current-layer="layer1"
     showgrid="false"
     units="px"
     inkscape:window-width="1920"
     inkscape:window-height="1085"
     inkscape:window-x="0"
     inkscape:window-y="1"
     inkscape:window-maximized="1" />
  <metadata
     id="metadata5">
    <rdf:RDF>
      <cc:Work
         rdf:about="">
        <dc:format>image/svg+xml</dc:format>
        <dc:type
           rdf:resource="http://purl.org/dc/dcmitype/StillImage" />
        <dc:title />
      </cc:Work>
    </rdf:RDF>
  </metadata>
  <g
     inkscape:label="Layer 1"
     inkscape:groupmode="layer"
     id="layer1"
     transform="translate(0,-164.70832)">
    <path
       style="fill:#ffffff;stroke-width:0.05234824"
       d="m 30.217439,272.65165 c -1.559225,-0.24255 -2.90485,-0.9414 -3.989181,-2.07177 -1.222761,-1.27467 -1.860337,-2.77507 -1.944129,-4.57511 -0.02476,-0.53191 -0.01569,-0.71203 0.04104,-0.81545 0.08154,-0.14866 35.043375,-33.23488 35.118917,-33.23488 0.02643,0 0.114058,0.0686 0.194693,0.15248 2.103795,2.18801 5.22439,5.53247 5.22439,5.59919 0,0.0759 -30.959413,32.87393 -32.532781,34.46486 l -0.556535,0.56274 -0.54704,-0.005 c -0.300871,-0.002 -0.755087,-0.0374 -1.009373,-0.077 z m 70.226121,0.002 c -0.0666,-0.0485 -9.605008,-10.11524 -21.19644,-22.37032 -11.591431,-12.25507 -21.20696,-22.39548 -21.367843,-22.53422 -0.55302,-0.47695 -1.484255,-0.82088 -2.222584,-0.82088 -0.670117,0 -1.427196,0.23926 -2.008063,0.63459 -0.137349,0.0935 -0.586406,0.50057 -0.997906,0.90466 l -0.748182,0.73468 -10.747781,-10.7556 c -10.406262,-10.41384 -11.149562,-11.17717 -12.058448,-12.3831 -2.079252,-2.75878 -3.532939,-6.10554 -4.170364,-9.60121 -0.23442,-1.28555 -0.311627,-2.13823 -0.315213,-3.48115 l -0.0034,-1.25636 0.162366,-0.42061 c 0.367171,-0.95117 0.932093,-1.57088 1.813655,-1.98954 1.109595,-0.52694 2.419167,-0.41692 3.478007,0.29218 0.138562,0.0928 8.272988,8.18463 18.076502,17.98186 9.803514,9.79723 18.618967,18.56312 19.589895,19.47973 17.941255,16.93766 40.197279,38.03025 40.246889,38.14297 0.0833,0.18914 0.0376,1.25548 -0.0793,1.85439 -0.4138,2.1193 -1.81194,3.96481 -3.71871,4.90867 -1.00184,0.4959 -1.80042,0.69801 -2.9315,0.74191 -0.58352,0.0227 -0.69779,0.0138 -0.80162,-0.0619 z M 72.401313,229.08669 c -0.172749,-0.16539 -1.356474,-1.286 -2.630499,-2.49024 -1.274025,-1.20425 -2.31641,-2.20734 -2.31641,-2.22911 0,-0.0218 1.807978,-1.75143 4.017727,-3.8437 2.209748,-2.09228 4.113624,-3.91567 4.23083,-4.052 1.108333,-1.28906 1.850318,-2.68045 2.268145,-4.25331 0.258428,-0.97281 0.322931,-1.55584 0.373438,-3.37563 0.02804,-1.01035 0.0786,-1.8829 0.127384,-2.19863 0.40053,-2.59195 1.723449,-4.92769 3.718503,-6.56536 0.317808,-0.26087 14.020463,-10.02515 15.107469,-10.76532 0.446014,-0.30369 0.629811,-0.36344 0.963949,-0.31334 0.641951,0.0963 1.036413,0.81731 0.782778,1.43084 -0.05708,0.13787 -2.016694,2.13308 -6.721045,6.84285 -5.449036,5.45532 -6.65215,6.68473 -6.705073,6.85173 -0.08941,0.28212 -0.03195,0.68423 0.133482,0.93421 0.15666,0.23674 0.574196,0.45824 0.861864,0.45724 0.450223,-0.002 0.337738,0.10399 7.276403,-6.82952 3.748063,-3.74527 6.686012,-6.64097 6.769422,-6.67206 0.081,-0.0303 0.26454,-0.0549 0.40778,-0.0549 0.6825,0 1.16576,0.64078 0.98982,1.31243 -0.0556,0.21237 -0.61873,0.7906 -6.699889,6.88007 -3.651528,3.65653 -6.676831,6.72362 -6.722899,6.81576 -0.132122,0.26429 -0.109762,0.72116 0.04851,0.99123 0.256308,0.43735 0.899672,0.63118 1.349177,0.40646 0.09214,-0.0462 3.159229,-3.07122 6.815756,-6.72256 6.990305,-6.9804 6.745855,-6.75045 7.176975,-6.75158 0.33136,-8.1e-4 0.75276,0.26568 0.91131,0.57648 0.11496,0.22533 0.13805,0.63432 0.0492,0.87247 -0.0311,0.0834 -2.92679,3.02136 -6.672079,6.76942 -6.933519,6.93866 -6.827945,6.82619 -6.829515,7.27641 -10e-4,0.28766 0.220512,0.7052 0.457242,0.86186 0.249988,0.16543 0.652085,0.22289 0.934206,0.13349 0.166995,-0.0529 1.396423,-1.25605 6.851748,-6.70508 4.709768,-4.70436 6.704968,-6.66404 6.842838,-6.72105 0.25928,-0.10718 0.59586,-0.0999 0.85235,0.0185 0.53376,0.24635 0.74804,0.85335 0.48399,1.37103 -0.0934,0.18323 -8.499195,12.04955 -10.528263,14.86268 -0.5377,0.74546 -1.55292,1.79734 -2.214995,2.29497 -1.421081,1.0681 -3.048602,1.75315 -4.812414,2.02563 -0.307824,0.0476 -1.206332,0.0995 -2.218647,0.12832 -1.059383,0.0302 -1.906293,0.0801 -2.244557,0.13245 -1.905224,0.29483 -3.681557,1.10587 -5.188893,2.36915 -0.297776,0.24957 -1.97805,1.98403 -4.187857,4.32288 -2.029802,2.14835 -3.714107,3.90598 -3.7429,3.90584 -0.02879,-1.5e-4 -0.193688,-0.13556 -0.366435,-0.30094 z"
       id="path867"
       inkscape:connector-curvature="0"
       sodipodi:nodetypes="csccscsccccccscscccccccccccscccccccccscccccccccscccccscccccsccccccccccccccccccccc" />
  </g>
</svg>
