<?xml version="1.0" standalone="no"?>
<!DOCTYPE svg PUBLIC "-//W3C//DTD SVG 20010904//EN"
 "http://www.w3.org/TR/2001/REC-SVG-20010904/DTD/svg10.dtd">
<svg version="1.0" xmlns="http://www.w3.org/2000/svg"
 width="1688.000000pt" height="1688.000000pt" viewBox="0 0 1688.000000 1688.000000"
 preserveAspectRatio="xMidYMid meet">
<metadata>
Created by potrace 1.11, written by Peter Selinger 2001-2013
</metadata>
<g transform="translate(0.000000,1688.000000) scale(0.100000,-0.100000)"
fill="#000000" stroke="none">
<path d="M2048 13155 c-2 -1 -34 -5 -73 -9 -71 -6 -127 -16 -245 -42 -36 -8
-74 -16 -85 -18 -11 -3 -40 -9 -65 -15 -25 -7 -54 -14 -65 -16 -64 -15 -192
-63 -267 -101 -508 -256 -869 -787 -1042 -1534 -24 -106 -51 -242 -61 -315 -3
-22 -8 -51 -10 -65 -41 -219 -64 -887 -35 -1010 30 -130 67 -167 259 -267 216
-112 351 -207 450 -316 20 -22 41 -45 47 -52 53 -53 194 -308 194 -349 0 -8 4
-17 9 -20 4 -3 11 -18 15 -33 3 -16 15 -62 26 -103 47 -167 66 -284 86 -510
15 -168 8 -658 -11 -825 -2 -22 -7 -65 -11 -95 -9 -80 -13 -120 -20 -165 -3
-22 -7 -56 -10 -75 -3 -19 -13 -84 -24 -145 -10 -60 -21 -126 -24 -145 -3 -19
-8 -46 -10 -60 -11 -61 -43 -286 -51 -351 -3 -31 -7 -65 -9 -75 -2 -11 -7 -48
-10 -84 -4 -36 -9 -85 -11 -110 -4 -41 -9 -109 -20 -270 -24 -371 -25 -1068
-1 -1310 2 -19 7 -69 10 -110 22 -247 64 -446 150 -710 l24 -75 514 -3 514 -2
-2 4087 c-2 4375 -6 4964 -29 5203 -8 77 -13 90 -38 91 -12 1 -32 3 -44 4 -12
1 -24 1 -25 0z"/>
<path d="M16485 13134 c-143 -25 -329 -69 -445 -106 -191 -61 -407 -205 -605
-403 -229 -229 -344 -418 -486 -798 -62 -164 -136 -415 -153 -518 -6 -35 -12
-65 -21 -109 -11 -51 -14 -70 -20 -137 -4 -37 -9 -70 -10 -73 -2 -3 -6 -41
-10 -85 -4 -44 -9 -96 -11 -115 -14 -131 -23 -579 -14 -695 11 -139 70 -224
213 -305 273 -156 418 -289 562 -515 43 -69 112 -202 148 -290 39 -96 95 -270
87 -270 -1 0 4 -13 10 -30 6 -16 21 -73 32 -125 26 -123 24 -115 33 -185 4
-32 9 -68 11 -80 23 -116 22 -604 -1 -724 -2 -13 -7 -49 -11 -80 -3 -31 -8
-65 -10 -76 -12 -62 -43 -250 -50 -305 -2 -19 -9 -62 -15 -95 -17 -99 -18
-108 -28 -165 -11 -62 -22 -133 -26 -170 -1 -14 -10 -77 -19 -140 -22 -161
-32 -254 -42 -370 -3 -41 -8 -91 -9 -110 -31 -312 -19 -1231 21 -1562 2 -21 6
-55 8 -75 11 -93 19 -150 22 -168 2 -11 9 -47 15 -80 20 -115 62 -254 108
-357 l20 -48 504 0 503 0 0 4695 0 4696 -85 -2 c-47 -1 -149 -12 -226 -25z"/>
<path d="M8597 13144 c-1 -1 -69 -5 -152 -9 -161 -7 -190 -9 -275 -19 -30 -4
-77 -9 -105 -12 -27 -3 -75 -9 -105 -14 -30 -5 -74 -12 -98 -15 -45 -6 -223
-41 -257 -49 -11 -3 -51 -13 -90 -22 -369 -83 -768 -242 -1137 -452 -491 -279
-805 -529 -1233 -982 -289 -306 -611 -774 -775 -1125 -18 -38 -48 -104 -67
-145 -80 -169 -200 -507 -257 -720 -26 -98 -72 -356 -82 -458 -3 -31 -7 -75
-10 -97 -20 -175 -26 -751 -10 -1005 16 -262 23 -367 32 -460 10 -103 183
-674 250 -827 8 -17 14 -34 14 -38 0 -13 136 -302 183 -389 84 -155 106 -193
169 -293 119 -189 222 -334 363 -507 214 -265 492 -544 740 -740 33 -26 68
-54 78 -62 288 -235 858 -555 1252 -702 44 -16 89 -33 100 -38 11 -4 22 -8 25
-9 3 0 57 -18 120 -39 113 -38 135 -44 317 -91 91 -24 284 -59 393 -71 30 -3
66 -8 80 -10 186 -25 793 -25 1000 0 19 2 67 7 105 11 39 4 79 9 89 11 11 2
42 6 70 9 28 3 60 8 71 10 11 3 36 7 55 10 19 2 47 7 63 10 15 3 39 7 54 10
206 36 622 145 793 209 25 9 50 18 55 20 151 45 562 228 760 339 305 170 595
376 791 562 210 199 356 354 482 510 40 50 81 101 92 113 11 13 20 27 20 32 0
5 3 10 8 12 10 4 97 125 179 248 186 280 352 599 473 905 23 61 47 119 51 130
43 98 155 491 175 610 3 17 9 46 14 65 5 19 12 55 15 80 3 25 10 70 15 100 6
30 12 82 16 115 3 33 7 76 9 95 27 238 23 701 -9 945 -3 22 -8 63 -12 90 -3
28 -7 61 -9 75 -3 14 -7 43 -10 65 -15 103 -53 294 -100 495 -31 135 -107 370
-174 539 -65 160 -231 495 -288 577 -11 16 -48 74 -83 129 -49 79 -163 245
-212 310 -61 80 -267 326 -326 389 -295 314 -616 587 -947 804 -176 116 -167
111 -190 122 -11 5 -38 21 -60 34 -140 87 -570 296 -608 296 -7 0 -17 4 -23 9
-14 14 -325 116 -439 145 -236 59 -548 112 -775 132 -41 3 -82 7 -90 9 -45 9
-554 26 -563 19z"/>
</g>
</svg>
